<svg width="24" height="24" fill="none" xmlns="http://www.w3.org/2000/svg"><path d="M18.247 15.877c-.785-.774-1.763-.774-2.543 0-.594.59-1.188 1.178-1.773 1.778-.16.165-.294.2-.489.09-.385-.21-.794-.38-1.164-.61-1.723-1.083-3.166-2.477-4.445-4.045-.634-.779-1.198-1.613-1.593-2.552-.08-.19-.065-.315.09-.47.595-.574 1.174-1.163 1.758-1.752.814-.82.814-1.778-.005-2.603-.464-.469-.929-.928-1.393-1.398-.48-.48-.954-.964-1.439-1.438-.784-.764-1.763-.764-2.542.005-.599.59-1.173 1.193-1.783 1.773-.564.534-.849 1.188-.909 1.952-.094 1.244.21 2.418.64 3.561.879 2.368 2.217 4.47 3.84 6.398 2.193 2.607 4.81 4.67 7.871 6.158 1.379.67 2.807 1.184 4.36 1.269 1.07.06 1.998-.21 2.742-1.044.51-.57 1.084-1.089 1.623-1.633.8-.81.804-1.788.01-2.587a768.058 768.058 0 00-2.856-2.852zm-.954-3.981l1.843-.314a8.237 8.237 0 00-2.303-4.445 8.192 8.192 0 00-4.694-2.342l-.26 1.852a6.356 6.356 0 013.636 1.813 6.356 6.356 0 011.778 3.436zm2.881-8.01A13.589 13.589 0 0012.384 0l-.26 1.853a11.783 11.783 0 016.732 3.356 11.773 11.773 0 013.301 6.368L24 11.262a13.688 13.688 0 00-3.826-7.376z" fill="#00B200"/></svg>