<svg xmlns="http://www.w3.org/2000/svg" xmlns:xlink="http://www.w3.org/1999/xlink"><symbol id="icon-burger" viewBox="0 0 25 25">
<path d="M25 3.12516C25 2.50016 24.5833 2.0835 23.9583 2.0835H1.04167C0.416667 2.0835 0 2.50016 0 3.12516V5.20849C0 5.83349 0.416667 6.25016 1.04167 6.25016H23.9583C24.5833 6.25016 25 5.83349 25 5.20849V3.12516Z" fill="#00B200"/>
<path d="M25 11.4587C25 10.8337 24.5833 10.417 23.9583 10.417H1.04167C0.416667 10.417 0 10.8337 0 11.4587V13.542C0 14.167 0.416667 14.5837 1.04167 14.5837H23.9583C24.5833 14.5837 25 14.167 25 13.542V11.4587Z" fill="#00B200"/>
<path d="M25.0002 19.7917C25.0002 19.1667 24.7224 18.75 24.3057 18.75H9.02794C8.61127 18.75 8.3335 19.1667 8.3335 19.7917V21.875C8.3335 22.5 8.61127 22.9167 9.02794 22.9167H24.3057C24.7224 22.9167 25.0002 22.5 25.0002 21.875V19.7917Z" fill="#00B200"/>
</symbol><symbol id="icon-calendar" viewBox="0 0 19 19">
<path d="M2.37499 2.96881V0.593754C2.37499 0.265531 2.64052 0 2.96882 0C3.29697 0 3.5625 0.265531 3.5625 0.593754V2.96881C3.5625 3.29695 3.29697 3.56248 2.96882 3.56248C2.64052 3.56252 2.37499 3.29695 2.37499 2.96881ZM12.4689 3.56252C12.7969 3.56252 13.0626 3.29699 13.0626 2.96885V0.593754C13.0626 0.265531 12.7969 0 12.4689 0C12.1407 0 11.8749 0.265531 11.8749 0.593754V2.96881C11.8749 3.29695 12.1407 3.56252 12.4689 3.56252ZM19 14.2499C19 16.8733 16.8732 19 14.25 19C11.6269 19 9.50002 16.8733 9.50002 14.2499C9.50002 11.6268 11.6269 9.49998 14.25 9.49998C16.8732 9.49998 19 11.6268 19 14.2499ZM17.8126 14.2499C17.8126 12.2856 16.2146 10.6874 14.25 10.6874C12.2856 10.6874 10.6876 12.2856 10.6876 14.2499C10.6876 16.2145 12.2856 17.8125 14.25 17.8125C16.2146 17.8125 17.8126 16.2145 17.8126 14.2499ZM4.75005 7.12501H2.37499V9.49998H4.75005V7.12501ZM2.37499 13.0625H4.75005V10.6874H2.37499V13.0625ZM5.93748 9.49998H8.31259V7.12501H5.93748V9.49998ZM5.93748 13.0625H8.31259V10.6874H5.93748V13.0625ZM1.18755 14.1318V5.93746H14.25V8.31251H15.4376V3.68086C15.4376 2.95953 14.8623 2.37498 14.1515 2.37498H13.6563V2.96885C13.6563 3.62283 13.1239 4.15631 12.4689 4.15631C11.8138 4.15631 11.2814 3.62283 11.2814 2.96885V2.37498H4.15621V2.96885C4.15621 3.62283 3.62394 4.15631 2.96886 4.15631C2.31362 4.15631 1.78131 3.62283 1.78131 2.96885V2.37498H1.28666C0.575861 2.37498 0 2.95953 0 3.68086V14.1318C0 14.8508 0.575861 15.4376 1.28666 15.4376H8.31259V14.2499H1.28666C1.23286 14.2499 1.18755 14.1943 1.18755 14.1318ZM11.8749 9.49998V7.12501H9.50006V9.49998H11.8749ZM16.0313 14.2499H14.25V12.4686C14.25 12.1405 13.9845 11.875 13.6562 11.875C13.328 11.875 13.0626 12.1405 13.0626 12.4686V14.8438C13.0626 15.1719 13.328 15.4376 13.6562 15.4376H16.0313C16.3595 15.4376 16.6251 15.1719 16.6251 14.8438C16.6251 14.5156 16.3595 14.2499 16.0313 14.2499Z" fill="#00B200"/>
</symbol><symbol id="icon-clock" viewBox="0 0 14 14">
<path d="M7 0C3.13992 0 0 3.13991 0 7C0 10.8601 3.13992 14 7 14C10.8601 14 14 10.8601 14 7C14 3.13991 10.8601 0 7 0ZM7 12.5165C3.96091 12.5165 1.49794 10.0391 1.49794 7.0144C1.49794 3.98971 3.97531 1.51235 7 1.51235C10.0247 1.51235 12.5021 3.98971 12.5021 7.0144C12.5021 10.0391 10.0391 12.5165 7 12.5165Z" fill="#00B200"/>
<path d="M10.644 6.78395H7.50412V3.01029C7.50412 2.69342 7.24486 2.43416 6.92798 2.43416C6.61111 2.43416 6.35185 2.69342 6.35185 3.01029V7.36008C6.35185 7.67695 6.61111 7.93621 6.92798 7.93621H10.644C10.9609 7.93621 11.2202 7.67695 11.2202 7.36008C11.2202 7.04321 10.9609 6.78395 10.644 6.78395Z" fill="#00B200"/>
</symbol><symbol id="icon-facebook" viewBox="0 0 20 20">
<path d="M10 0C4.47708 0 0 4.47708 0 10C0 15.5229 4.47708 20 10 20C15.5229 20 20 15.5229 20 10C20 4.47708 15.5229 0 10 0ZM12.3688 6.91042H10.8656C10.6875 6.91042 10.4896 7.14479 10.4896 7.45625V8.54167H12.3698L12.0854 10.0896H10.4896V14.7365H8.71562V10.0896H7.10625V8.54167H8.71562V7.63125C8.71562 6.325 9.62188 5.26354 10.8656 5.26354H12.3688V6.91042Z" fill="white" fill-opacity="0.3"/>
</symbol><symbol id="icon-geo" viewBox="0 0 10 16">
<path d="M5 0C2.23828 0 0 2.23828 0 5C0 5.74609 0.164063 6.45509 0.456063 7.08984L4.26466 15.3545C4.44728 15.7519 4.709 16 5 16C5.291 16 5.55275 15.7519 5.73534 15.3555L9.54394 7.08984C9.83691 6.45509 10 5.74609 10 5C10 2.23828 7.76172 0 5 0ZM5 8C3.34375 8 2 6.65625 2 5C2 3.34375 3.34375 2 5 2C6.65625 2 8 3.34375 8 5C8 6.65625 6.65625 8 5 8Z" fill="#00B200"/>
</symbol><symbol id="icon-home" viewBox="0 0 14 12">
<path d="M7.00008 2.72327L2.00705 6.8395C2.00705 6.84531 2.00559 6.85385 2.00267 6.8655C1.99981 6.87706 1.99829 6.88546 1.99829 6.89142V11.0595C1.99829 11.21 2.05331 11.3405 2.16332 11.4503C2.2733 11.5602 2.40354 11.6155 2.55407 11.6155H5.88847V8.28087H8.11172V11.6156H11.4461C11.5966 11.6156 11.727 11.5604 11.8368 11.4503C11.9468 11.3406 12.0021 11.2101 12.0021 11.0595V6.89142C12.0021 6.8683 11.9989 6.85084 11.9933 6.8395L7.00008 2.72327Z" fill="#00B200"/>
<path d="M13.9034 5.90165L12.0018 4.32122V0.778243C12.0018 0.697247 11.9758 0.630638 11.9235 0.578507C11.8717 0.526436 11.8051 0.5004 11.7239 0.5004H10.0567C9.97558 0.5004 9.909 0.526436 9.85684 0.578507C9.8048 0.630638 9.7788 0.697278 9.7788 0.778243V2.47155L7.66002 0.700015C7.47498 0.54949 7.25495 0.474243 7.0002 0.474243C6.74547 0.474243 6.52548 0.54949 6.34025 0.700015L0.0964936 5.90165C0.0386137 5.94788 0.00689076 6.01011 0.000990238 6.08828C-0.00487987 6.16639 0.0153462 6.23461 0.0617291 6.29246L0.600106 6.93507C0.646489 6.98714 0.707198 7.01899 0.782475 7.03063C0.851973 7.03647 0.921472 7.01616 0.99097 6.96986L7.00002 1.9592L13.0091 6.96984C13.0555 7.01023 13.1162 7.03039 13.1915 7.03039H13.2176C13.2927 7.01896 13.3533 6.9869 13.4 6.93495L13.9384 6.29243C13.9847 6.23446 14.005 6.16636 13.9989 6.08816C13.993 6.0102 13.9612 5.94798 13.9034 5.90165Z" fill="#00B200"/>
</symbol><symbol id="icon-instagram" viewBox="0 0 20 20">
<path d="M15.6474 0H4.35257C1.94618 0 0 1.96209 0 4.38147V15.6185C0 18.0379 1.94618 20 4.35257 20H15.6474C18.0499 20 20 18.0379 20 15.6185V4.38147C20 1.96209 18.0499 0 15.6474 0ZM17.6755 13.2343C17.6716 15.6928 15.6825 17.6861 13.2293 17.6901H6.77067C4.31747 17.6861 2.32839 15.6928 2.32449 13.2343V6.76177C2.32449 4.3033 4.31747 2.30604 6.77067 2.30604H13.2293C15.6825 2.30604 17.6755 4.3033 17.6755 6.76177V13.2343Z" fill="white" fill-opacity="0.3"/>
<path d="M10 7.27379C8.49844 7.27379 7.27769 8.49326 7.27769 10.002C7.27769 11.5107 8.49454 12.7301 10 12.7301C11.5055 12.7301 12.7223 11.5107 12.7223 10.002C12.7184 8.49326 11.5016 7.27379 10 7.27379Z" fill="white" fill-opacity="0.3"/>
<path d="M13.2254 3.25191H6.77067C4.83619 3.25581 3.26833 4.82705 3.26833 6.76568V13.2382C3.27223 15.1769 4.84009 16.7481 6.77067 16.752H13.2293C15.1638 16.7481 16.7317 15.1769 16.7317 13.2382V6.76177C16.7278 4.82705 15.1599 3.25581 13.2254 3.25191ZM10 13.6682C7.97972 13.6682 6.33775 12.0266 6.34165 9.99805C6.34165 7.97342 7.97972 6.32793 10.0039 6.33183C12.0242 6.33183 13.6622 7.97342 13.6622 10.002C13.6583 12.0266 12.0203 13.6643 10 13.6682ZM14.1966 6.57416C13.7676 6.57416 13.4165 6.2224 13.4165 5.79246C13.4165 5.36252 13.7676 5.01075 14.1966 5.01075C14.6256 5.01075 14.9766 5.36252 14.9766 5.79246C14.9766 6.2224 14.6256 6.57416 14.1966 6.57416Z" fill="white" fill-opacity="0.3"/>
</symbol><symbol id="icon-mail" viewBox="0 0 14 11">
<path d="M6.99992 7.44548L5.26792 5.83301L0.315918 10.3481C0.495918 10.5258 0.738918 10.6364 1.00692 10.6364H12.9929C13.2599 10.6364 13.5019 10.5258 13.6809 10.3481L8.73192 5.83301L6.99992 7.44548Z" fill="#00B200"/>
<path d="M13.6839 0.288245C13.5039 0.109555 13.2619 0 12.9929 0H1.00687C0.739871 0 0.497871 0.110618 0.317871 0.290373L6.99988 6.38182L13.6839 0.288245Z" fill="#00B200"/>
<path d="M0 0.933838V9.77053L4.833 5.40218L0 0.933838Z" fill="#00B200"/>
<path d="M9.16699 5.40219L14 9.77055V0.930664L9.16699 5.40219Z" fill="#00B200"/>
</symbol><symbol id="icon-phone" viewBox="0 0 24 24">
<path d="M18.2466 15.8769C17.4625 15.1028 16.4836 15.1028 15.7045 15.8769C15.1102 16.4662 14.5158 17.0555 13.9315 17.6549C13.7717 17.8197 13.6368 17.8546 13.4421 17.7448C13.0575 17.535 12.648 17.3652 12.2784 17.1355C10.5554 16.0517 9.11201 14.6583 7.83347 13.0901C7.19919 12.311 6.63483 11.4769 6.24029 10.538C6.16038 10.3482 6.17536 10.2234 6.33018 10.0685C6.9245 9.49419 7.50384 8.90486 8.08817 8.31553C8.90224 7.49647 8.90224 6.53756 8.08318 5.7135C7.61871 5.24404 7.15424 4.78456 6.68977 4.3151C6.21032 3.83565 5.73586 3.3512 5.25141 2.87674C4.46731 2.11262 3.48843 2.11262 2.70932 2.88174C2.11 3.47107 1.53566 4.07537 0.926355 4.65471C0.362 5.1891 0.0773248 5.84336 0.0173933 6.60748C-0.0774984 7.85106 0.227154 9.02472 0.656663 10.1684C1.53566 12.5357 2.87413 14.6383 4.49728 16.5661C6.68977 19.1731 9.30678 21.2358 12.3683 22.7241C13.7467 23.3933 15.1751 23.9077 16.7283 23.9926C17.7971 24.0526 18.726 23.7829 19.4702 22.9488C19.9796 22.3795 20.5539 21.8601 21.0933 21.3157C21.8924 20.5066 21.8974 19.5277 21.1033 18.7286C20.1544 17.7747 19.2005 16.8258 18.2466 15.8769Z" fill="#00B200"/>
<path d="M17.2927 11.8964L19.1356 11.5818C18.8459 9.88871 18.0468 8.35546 16.8332 7.13685C15.5497 5.85331 13.9265 5.04424 12.1385 4.79452L11.8788 6.64741C13.2623 6.84219 14.5208 7.46647 15.5147 8.46034C16.4536 9.39926 17.0679 10.5879 17.2927 11.8964Z" fill="#00B200"/>
<path d="M20.1744 3.88556C18.0468 1.75799 15.3549 0.414527 12.3833 0L12.1236 1.85288C14.6906 2.21247 17.018 3.37614 18.8559 5.20905C20.5989 6.95206 21.7426 9.15454 22.1571 11.5768L24 11.2621C23.5156 8.45534 22.1921 5.90825 20.1744 3.88556Z" fill="#00B200"/>
</symbol><symbol id="icon-vkontakte" viewBox="0 0 20 20">
<path d="M10 0C4.47708 0 0 4.47708 0 10C0 15.5229 4.47708 20 10 20C15.5229 20 20 15.5229 20 10C20 4.47708 15.5229 0 10 0ZM13.8458 11.2823C13.8458 11.2823 14.7302 12.1552 14.9479 12.5604C14.9542 12.5688 14.9573 12.5771 14.9594 12.5812C15.0479 12.7302 15.0688 12.8458 15.025 12.9323C14.9521 13.076 14.7021 13.1469 14.6167 13.1531C14.6167 13.1531 13.0979 13.1531 13.0542 13.1531C12.9458 13.1531 12.7188 13.125 12.4437 12.9354C12.2323 12.7875 12.024 12.5448 11.8208 12.3083C11.5177 11.9562 11.2552 11.6521 10.9906 11.6521C10.9573 11.6521 10.9229 11.6573 10.8917 11.6677C10.6917 11.7323 10.4354 12.0177 10.4354 12.7781C10.4354 13.0156 10.2479 13.1521 10.1156 13.1521C10.1156 13.1521 9.43333 13.1521 9.4 13.1521C9.15625 13.1521 7.88646 13.0667 6.76146 11.8802C5.38437 10.4271 4.14479 7.5125 4.13437 7.48542C4.05625 7.29687 4.21771 7.19583 4.39375 7.19583H5.97187C6.18229 7.19583 6.25104 7.32396 6.29896 7.4375C6.35521 7.56979 6.56146 8.09583 6.9 8.6875C7.44896 9.65208 7.78542 10.0437 8.05521 10.0437C8.10625 10.0437 8.15312 10.0302 8.2 10.0062C8.55208 9.81042 8.48646 8.55521 8.47083 8.29479C8.47083 8.24583 8.46979 7.73333 8.28958 7.4875C8.16042 7.30937 7.94062 7.24167 7.80729 7.21667C7.84167 7.16562 7.91875 7.0875 8.01458 7.04062C8.25625 6.91979 8.69167 6.90208 9.12396 6.90208H9.36458C9.83333 6.90833 9.95417 6.93854 10.124 6.98125C10.4677 7.06354 10.475 7.28542 10.4448 8.04479C10.4354 8.26042 10.426 8.50417 10.426 8.79167C10.426 8.85417 10.4229 8.92083 10.4229 8.99167C10.4125 9.37812 10.4 9.81667 10.6729 9.99687C10.7083 10.0188 10.749 10.0312 10.7917 10.0312C10.8865 10.0312 11.1719 10.0312 11.9448 8.70521C12.2833 8.11979 12.5458 7.42917 12.5646 7.37812C12.5802 7.35104 12.626 7.26771 12.6802 7.23542C12.7229 7.21042 12.7802 7.20521 12.8094 7.20521H14.6646C14.8667 7.20521 15.0052 7.23542 15.0312 7.31354C15.0771 7.4375 15.0229 7.81562 14.176 8.9625C14.0333 9.15208 13.9073 9.31771 13.7979 9.46146C13.0302 10.4677 13.0302 10.5188 13.8458 11.2823Z" fill="white" fill-opacity="0.3"/>
</symbol><symbol id="icon-youtube" viewBox="0 0 20 20">
<path d="M9.50583 7.43994C9.57447 7.48113 9.66369 7.50858 9.74605 7.50172C9.83528 7.50858 9.9245 7.48799 10 7.43994C10.0618 7.40563 10.0961 7.34386 10.0961 7.26836V5.82704C10.0961 5.76527 10.0549 5.71723 10 5.68977C9.9245 5.64859 9.83528 5.63487 9.75292 5.63487C9.67056 5.628 9.59506 5.64859 9.51956 5.68977C9.46465 5.71723 9.43034 5.76527 9.43034 5.82704V7.26836C9.42347 7.33699 9.45093 7.39876 9.50583 7.43994Z" fill="white" fill-opacity="0.3"/>
<path d="M8.48318 13.7474C8.42141 13.8023 8.35278 13.8435 8.27728 13.8778C8.22237 13.9053 8.1606 13.9259 8.09197 13.9327C8.04393 13.9396 7.99588 13.9259 7.9547 13.8916C7.92725 13.8572 7.91352 13.8092 7.91352 13.768V11.8737H7.25463V13.9327C7.24777 14.0563 7.28895 14.173 7.37131 14.269C7.4674 14.3514 7.59094 14.3926 7.71448 14.3789C7.84489 14.3789 7.97529 14.3514 8.09883 14.2965C8.2361 14.2416 8.36651 14.1661 8.47632 14.07V14.3377H9.13521L9.14207 11.8737H8.48318V13.7474Z" fill="white" fill-opacity="0.3"/>
<path d="M5.38778 11.6884H6.01922V14.3034H6.63006V11.6884H7.25463L7.2615 11.2423H5.38778V11.6884Z" fill="white" fill-opacity="0.3"/>
<path d="M10 0C4.47495 0 0 4.47495 0 10C0 15.5251 4.47495 20 10 20C15.5251 20 20 15.5251 20 10C20 4.47495 15.5182 0 10 0ZM11.4413 7.54976V5.01029H12.0316V7.34386C12.0247 7.39876 12.0384 7.45367 12.0728 7.50172C12.1002 7.53603 12.1482 7.55662 12.1894 7.54976C12.2512 7.5429 12.3061 7.52231 12.3542 7.48799C12.4228 7.43994 12.4846 7.38504 12.5326 7.32327V5.01029H13.1229V8.04393H12.5326V7.70762C12.4365 7.8243 12.3198 7.92038 12.1894 7.98902C12.0728 8.05079 11.9561 8.11942 11.8463 8.11942C11.7227 8.11256 11.6129 8.05765 11.5443 7.9547C11.4688 7.83802 11.4276 7.69389 11.4413 7.54976ZM8.75086 5.75154C8.74399 5.53192 8.85381 5.33288 9.03226 5.20933C9.21757 5.07207 9.47152 5.01029 9.78723 5.01029C10.0412 4.99657 10.2883 5.07207 10.4942 5.22306C10.6726 5.35347 10.7756 5.55251 10.7687 5.77213V7.28895C10.7756 7.51544 10.6795 7.73507 10.501 7.8792C10.2883 8.04393 10.0275 8.12629 9.75978 8.11942C9.49211 8.12629 9.23816 8.03706 9.03226 7.86548C8.85381 7.72134 8.75086 7.50172 8.75772 7.26836V5.75154H8.75086ZM7.00069 3.75429L7.48113 5.50446H7.53603L7.99588 3.75429H8.75086L7.88607 6.31434V8.13315H7.13795V6.39671L6.24571 3.75429H7.00069ZM15.3809 13.6376C15.3809 14.7289 14.4612 15.6143 13.3288 15.6143H6.1908C5.05834 15.6143 4.13864 14.7289 4.13864 13.6376V11.9698C4.13864 10.8785 5.05834 9.99314 6.1908 9.99314H13.3288C14.4612 9.99314 15.3809 10.8785 15.3809 11.9698V13.6376Z" fill="white" fill-opacity="0.3"/>
<path d="M11.6266 12.6012C11.6404 12.4434 11.5786 12.2855 11.4619 12.1757C11.3521 12.0796 11.1942 12.0316 10.9883 12.0316C10.8854 12.0316 10.7824 12.0522 10.6863 12.0865C10.5834 12.1277 10.4942 12.1757 10.4049 12.2443V11.2491H9.74605V14.3445H10.4049V14.173C10.4873 14.2416 10.5834 14.2965 10.6795 14.3308C10.7893 14.3651 10.906 14.3789 11.0226 14.3789C11.2148 14.3789 11.3658 14.3377 11.4619 14.2485C11.5649 14.1524 11.6266 14.0151 11.6129 13.8778L11.6266 12.6012ZM10.9609 13.8023C10.9677 13.8572 10.9472 13.919 10.906 13.9602C10.8579 13.9945 10.7962 14.0151 10.7344 14.0082L10.5765 13.9808C10.5216 13.9602 10.4667 13.9327 10.4255 13.8984V12.4777L10.5628 12.4091L10.7001 12.3885C10.7687 12.3885 10.8442 12.4091 10.8991 12.4502C10.9472 12.4983 10.9746 12.5601 10.9677 12.6218V13.8023H10.9609Z" fill="white" fill-opacity="0.3"/>
<path d="M13.4866 13.617C13.4866 13.7543 13.466 13.8435 13.4248 13.8847C13.3631 13.9327 13.2807 13.9533 13.2052 13.9465C13.1297 13.9533 13.0474 13.9259 12.9925 13.8778C12.9444 13.8023 12.9238 13.7062 12.9307 13.617V13.1709H14.1386V12.5669C14.1524 12.3679 14.0631 12.1757 13.9053 12.0522C13.7474 11.9355 13.5209 11.8737 13.2327 11.8737C12.9513 11.8737 12.7179 11.9355 12.5395 12.0659C12.3679 12.1757 12.2649 12.3679 12.2718 12.5669V13.6307C12.2649 13.8367 12.3542 14.0357 12.5189 14.1661C12.6836 14.2965 12.9032 14.3583 13.1915 14.3583C13.5072 14.3583 13.7406 14.2965 13.9053 14.173C14.0631 14.0494 14.1455 13.8641 14.1455 13.6239V13.5003H13.4935V13.617H13.4866ZM13.0199 12.3542C13.0817 12.3061 13.1572 12.2787 13.2395 12.2924C13.315 12.2855 13.3905 12.3061 13.4523 12.3542C13.5003 12.4159 13.5278 12.4914 13.5209 12.5669V12.8071H12.9581V12.5601C12.9444 12.4846 12.965 12.4091 13.0199 12.3542Z" fill="white" fill-opacity="0.3"/>
</symbol></svg>