<svg xmlns="http://www.w3.org/2000/svg" xmlns:xlink="http://www.w3.org/1999/xlink"><symbol id="icon-arrow"><path d="M3.58 4.6L.3 1.18a.674.674 0 010-.977.734.734 0 011.012 0l4 3.907c.28.271.28.71 0 .98l-4 3.908a.732.732 0 01-1.013 0 .674.674 0 010-.978L3.58 4.6z" fill="#9A9A9A"/></symbol><symbol id="icon-burger"><path d="M25 3.125c0-.625-.417-1.042-1.042-1.042H1.042C.417 2.083 0 2.5 0 3.125v2.083C0 5.833.417 6.25 1.042 6.25h22.916c.625 0 1.042-.417 1.042-1.042V3.125zm0 8.334c0-.625-.417-1.042-1.042-1.042H1.042c-.625 0-1.042.417-1.042 1.042v2.083c0 .625.417 1.042 1.042 1.042h22.916c.625 0 1.042-.417 1.042-1.042v-2.083zm0 8.333c0-.625-.278-1.042-.694-1.042H9.028c-.417 0-.694.417-.694 1.042v2.083c0 .625.277 1.042.694 1.042h15.278c.416 0 .694-.417.694-1.042v-2.083z"/></symbol><symbol id="icon-calendar"><path d="M2.375 2.969V.594a.593.593 0 111.188 0v2.375a.593.593 0 11-1.188 0zm10.094.594a.593.593 0 00.594-.594V.594a.593.593 0 10-1.188 0v2.375c0 .328.266.594.594.594zM19 14.25a4.75 4.75 0 11-9.5 0 4.75 4.75 0 019.5 0zm-1.187 0a3.567 3.567 0 00-3.563-3.563 3.566 3.566 0 00-3.562 3.563 3.566 3.566 0 003.562 3.563 3.566 3.566 0 003.563-3.563zM4.75 7.125H2.375V9.5H4.75V7.125zm-2.375 5.938H4.75v-2.376H2.375v2.376zM5.937 9.5h2.376V7.125H5.937V9.5zm0 3.563h2.376v-2.376H5.937v2.376zm-4.75 1.069V5.937H14.25v2.376h1.188V3.68c0-.721-.576-1.306-1.287-1.306h-.495v.594a1.19 1.19 0 01-1.187 1.187A1.19 1.19 0 0111.28 2.97v-.594H4.156v.594c0 .654-.532 1.187-1.187 1.187A1.19 1.19 0 011.78 2.97v-.594h-.494A1.295 1.295 0 000 3.681v10.45c0 .72.576 1.307 1.287 1.307h7.026V14.25H1.287c-.054 0-.1-.056-.1-.118zM11.876 9.5V7.125H9.5V9.5h2.375zm4.156 4.75H14.25v-1.781a.593.593 0 10-1.187 0v2.375c0 .328.265.594.593.594h2.375a.594.594 0 100-1.188z" fill="#00B200"/></symbol><symbol id="icon-clock"><path d="M7 0C3.14 0 0 3.14 0 7s3.14 7 7 7 7-3.14 7-7-3.14-7-7-7zm0 12.517a5.51 5.51 0 01-5.502-5.503C1.498 3.99 3.975 1.512 7 1.512s5.502 2.478 5.502 5.502A5.51 5.51 0 017 12.517z" fill="#00B200"/><path d="M10.644 6.784h-3.14V3.01a.578.578 0 00-.576-.576.578.578 0 00-.576.576v4.35c0 .317.26.576.576.576h3.716c.317 0 .576-.26.576-.576a.578.578 0 00-.576-.576z" fill="#00B200"/></symbol><symbol id="icon-facebook"><path d="M10 0C4.477 0 0 4.477 0 10s4.477 10 10 10 10-4.477 10-10S15.523 0 10 0zm2.369 6.91h-1.503c-.178 0-.376.235-.376.546v1.086h1.88l-.285 1.548H10.49v4.646H8.716V10.09h-1.61V8.542h1.61v-.91c0-1.307.906-2.368 2.15-2.368h1.503V6.91z" fill="#fff" fill-opacity=".3"/></symbol><symbol id="icon-geo"><path d="M5 0A5 5 0 00.456 7.09l3.809 8.264c.182.398.444.646.735.646s.553-.248.735-.645L9.544 7.09A5 5 0 005 0zm0 8a3 3 0 11.002-6.002A3 3 0 015 8z" fill="#00B200"/></symbol><symbol id="icon-home"><path d="M7 2.723L2.007 6.84a.118.118 0 01-.004.026.119.119 0 00-.005.025v4.168c0 .151.055.282.165.391.11.11.24.166.391.166h3.334V8.28h2.224v3.335h3.334c.15 0 .281-.056.39-.166.11-.11.166-.24.166-.39V6.89a.122.122 0 00-.009-.051L7 2.723z"/><path d="M13.903 5.902l-1.901-1.58V.777a.27.27 0 00-.079-.2.27.27 0 00-.2-.078h-1.666a.27.27 0 00-.2.079.27.27 0 00-.078.2v1.693L7.66.7A1.013 1.013 0 007 .474 1.01 1.01 0 006.34.7L.096 5.902a.252.252 0 00-.095.186.281.281 0 00.06.204l.54.643a.296.296 0 00.181.096.323.323 0 00.209-.061L7 1.96l6.01 5.01c.046.04.106.06.181.06h.027a.297.297 0 00.182-.095l.538-.643a.28.28 0 00.06-.204.253.253 0 00-.095-.186z"/></symbol><symbol id="icon-instagram"><path d="M15.647 0H4.353C1.946 0 0 1.962 0 4.381v11.237C0 18.038 1.946 20 4.353 20h11.294C18.05 20 20 18.038 20 15.618V4.381C20 1.962 18.05 0 15.647 0zm2.028 13.234a4.46 4.46 0 01-4.446 4.456H6.771a4.46 4.46 0 01-4.447-4.456V6.762a4.454 4.454 0 014.447-4.456h6.458a4.454 4.454 0 014.447 4.456v6.472z" fill="#fff" fill-opacity=".3"/><path d="M10 7.274a2.725 2.725 0 00-2.722 2.728 2.723 2.723 0 105.444 0A2.728 2.728 0 0010 7.274z" fill="#fff" fill-opacity=".3"/><path d="M13.225 3.252H6.771a3.512 3.512 0 00-3.503 3.514v6.472a3.517 3.517 0 003.503 3.514h6.458a3.512 3.512 0 003.503-3.514V6.762a3.517 3.517 0 00-3.507-3.51zM10 13.668a3.66 3.66 0 01-3.658-3.67 3.66 3.66 0 117.32.004A3.67 3.67 0 0110 13.668zm4.197-7.094a.783.783 0 01-.78-.782c0-.43.35-.781.78-.781.429 0 .78.352.78.781 0 .43-.351.782-.78.782z" fill="#fff" fill-opacity=".3"/></symbol><symbol id="icon-mail"><path d="M7 7.445L5.268 5.833.316 10.348a.98.98 0 00.69.288h11.987c.267 0 .509-.11.688-.288L8.73 5.833 7 7.445z" fill="#00B200"/><path d="M13.684.288A.975.975 0 0012.993 0H1.007a.972.972 0 00-.69.29L7 6.382 13.684.288zM0 .934V9.77l4.833-4.369L0 .934zm9.167 4.468L14 9.771V.93L9.167 5.402z" fill="#00B200"/></symbol><symbol id="icon-phone"><path d="M18.247 15.877c-.785-.774-1.763-.774-2.543 0-.594.59-1.188 1.178-1.773 1.778-.16.165-.294.2-.489.09-.385-.21-.794-.38-1.164-.61-1.723-1.083-3.166-2.477-4.445-4.045-.634-.779-1.198-1.613-1.593-2.552-.08-.19-.065-.315.09-.47.595-.574 1.174-1.163 1.758-1.752.814-.82.814-1.778-.005-2.603-.464-.469-.929-.928-1.393-1.398-.48-.48-.954-.964-1.439-1.438-.784-.764-1.763-.764-2.542.005-.599.59-1.173 1.193-1.783 1.773-.564.534-.849 1.188-.909 1.952-.094 1.244.21 2.418.64 3.561.879 2.368 2.217 4.47 3.84 6.398 2.193 2.607 4.81 4.67 7.871 6.158 1.379.67 2.807 1.184 4.36 1.269 1.07.06 1.998-.21 2.742-1.044.51-.57 1.084-1.089 1.623-1.633.8-.81.804-1.788.01-2.587a768.058 768.058 0 00-2.856-2.852zm-.954-3.981l1.843-.314a8.237 8.237 0 00-2.303-4.445 8.192 8.192 0 00-4.694-2.342l-.26 1.852a6.356 6.356 0 013.636 1.813 6.356 6.356 0 011.778 3.436zm2.881-8.01A13.589 13.589 0 0012.384 0l-.26 1.853a11.783 11.783 0 016.732 3.356 11.773 11.773 0 013.301 6.368L24 11.262a13.688 13.688 0 00-3.826-7.376z" fill="#00B200"/></symbol><symbol id="icon-vkontakte"><path d="M10 0C4.477 0 0 4.477 0 10s4.477 10 10 10 10-4.477 10-10S15.523 0 10 0zm3.846 11.282s.884.873 1.102 1.278c.006.009.01.017.011.021.089.15.11.265.066.351-.073.144-.323.215-.408.221h-1.563c-.108 0-.335-.028-.61-.218-.212-.148-.42-.39-.623-.627-.303-.352-.566-.656-.83-.656a.317.317 0 00-.1.016c-.2.064-.456.35-.456 1.11 0 .238-.187.374-.32.374H9.4c-.244 0-1.514-.085-2.639-1.272-1.377-1.453-2.616-4.368-2.627-4.395-.078-.188.084-.29.26-.29h1.578c.21 0 .279.129.327.242.056.133.262.659.601 1.25.549.965.885 1.357 1.155 1.357a.312.312 0 00.145-.038c.352-.196.286-1.45.27-1.711 0-.05 0-.562-.18-.808-.13-.178-.35-.245-.483-.27a.574.574 0 01.208-.176c.241-.121.677-.139 1.109-.139h.24c.47.006.59.037.76.08.344.082.351.303.32 1.063-.009.215-.018.46-.018.747 0 .062-.003.129-.003.2-.01.386-.023.825.25 1.005a.225.225 0 00.119.034c.095 0 .38 0 1.153-1.326.338-.585.6-1.276.62-1.327.015-.027.061-.11.115-.143.043-.025.1-.03.13-.03h1.855c.202 0 .34.03.366.109.046.123-.008.502-.855 1.649l-.378.498c-.768 1.007-.768 1.058.048 1.821z" fill="#fff" fill-opacity=".3"/></symbol><symbol id="icon-youtube"><path d="M9.506 7.44a.42.42 0 00.24.062A.413.413 0 0010 7.44a.188.188 0 00.096-.172V5.827c0-.062-.041-.11-.096-.137a.52.52 0 00-.247-.055.405.405 0 00-.233.055.15.15 0 00-.09.137v1.441c-.007.069.02.13.076.172zm-1.023 6.307a.805.805 0 01-.206.13.528.528 0 01-.185.056.173.173 0 01-.137-.041.206.206 0 01-.041-.124v-1.894h-.66v2.059a.47.47 0 00.117.336c.096.082.22.124.343.11.13 0 .261-.028.385-.082a1.29 1.29 0 00.377-.227v.268h.66l.006-2.464h-.659v1.873zm-3.095-2.059h.631v2.615h.611v-2.615h.625l.006-.446H5.388v.446z" fill="#fff" fill-opacity=".3"/><path d="M10 0C4.475 0 0 4.475 0 10s4.475 10 10 10 10-4.475 10-10S15.518 0 10 0zm1.441 7.55V5.01h.59v2.334a.22.22 0 00.042.158.13.13 0 00.116.048.344.344 0 00.165-.062.821.821 0 00.179-.165V5.01h.59v3.034h-.59v-.336a1.126 1.126 0 01-.344.281c-.116.062-.233.13-.343.13a.377.377 0 01-.302-.164.642.642 0 01-.103-.405zm-2.69-1.798a.635.635 0 01.281-.543c.186-.137.44-.199.755-.199.254-.013.501.062.707.213a.65.65 0 01.275.55v1.516a.728.728 0 01-.268.59 1.157 1.157 0 01-.741.24 1.084 1.084 0 01-.728-.254.739.739 0 01-.274-.597V5.752H8.75zM7 3.754l.48 1.75h.055l.46-1.75h.755l-.865 2.56v1.82h-.748V6.396l-.892-2.643H7zm8.38 9.884c0 1.09-.92 1.976-2.052 1.976H6.19c-1.133 0-2.052-.885-2.052-1.976V11.97c0-1.091.92-1.977 2.052-1.977h7.138c1.132 0 2.052.886 2.052 1.977v1.668z" fill="#fff" fill-opacity=".3"/><path d="M11.627 12.601a.525.525 0 00-.165-.425c-.11-.096-.268-.144-.474-.144a.905.905 0 00-.302.054c-.103.042-.192.09-.281.158v-.995h-.659v3.095h.659v-.171a.921.921 0 00.275.158c.11.034.226.048.343.048.192 0 .343-.041.439-.13a.455.455 0 00.15-.371l.015-1.277zm-.666 1.201a.196.196 0 01-.055.158.252.252 0 01-.172.048l-.158-.027a.534.534 0 01-.15-.083v-1.42l.137-.069.137-.02c.069 0 .144.02.2.061.047.048.075.11.068.172v1.18h-.007zm2.526-.185c0 .137-.021.226-.062.268a.318.318 0 01-.22.062.295.295 0 01-.213-.07.433.433 0 01-.061-.26v-.446h1.208v-.604a.603.603 0 00-.234-.515c-.158-.117-.384-.178-.672-.178-.282 0-.515.061-.694.192a.577.577 0 00-.267.5v1.065a.653.653 0 00.247.535c.165.13.384.192.672.192.316 0 .55-.062.714-.185.158-.124.24-.309.24-.55V13.5h-.652v.117h-.006zm-.467-1.263a.279.279 0 01.22-.062.3.3 0 01.212.062.305.305 0 01.069.213v.24h-.563v-.247a.229.229 0 01.062-.206z" fill="#fff" fill-opacity=".3"/></symbol></svg>