<svg width="14" height="12" xmlns="http://www.w3.org/2000/svg"><path d="M7 2.723L2.007 6.84a.118.118 0 01-.004.026.119.119 0 00-.005.025v4.168c0 .151.055.282.165.391.11.11.24.166.391.166h3.334V8.28h2.224v3.335h3.334c.15 0 .281-.056.39-.166.11-.11.166-.24.166-.39V6.89a.122.122 0 00-.009-.051L7 2.723z" /><path d="M13.903 5.902l-1.901-1.58V.777a.27.27 0 00-.079-.2.27.27 0 00-.2-.078h-1.666a.27.27 0 00-.2.079.27.27 0 00-.078.2v1.693L7.66.7A1.013 1.013 0 007 .474 1.01 1.01 0 006.34.7L.096 5.902a.252.252 0 00-.095.186.281.281 0 00.06.204l.54.643a.296.296 0 00.181.096.323.323 0 00.209-.061L7 1.96l6.01 5.01c.046.04.106.06.181.06h.027a.297.297 0 00.182-.095l.538-.643a.28.28 0 00.06-.204.253.253 0 00-.095-.186z" /></svg>