<svg width="25" height="25" xmlns="http://www.w3.org/2000/svg"><path d="M25 3.125c0-.625-.417-1.042-1.042-1.042H1.042C.417 2.083 0 2.5 0 3.125v2.083C0 5.833.417 6.25 1.042 6.25h22.916c.625 0 1.042-.417 1.042-1.042V3.125zm0 8.334c0-.625-.417-1.042-1.042-1.042H1.042c-.625 0-1.042.417-1.042 1.042v2.083c0 .625.417 1.042 1.042 1.042h22.916c.625 0 1.042-.417 1.042-1.042v-2.083zm0 8.333c0-.625-.278-1.042-.694-1.042H9.028c-.417 0-.694.417-.694 1.042v2.083c0 .625.277 1.042.694 1.042h15.278c.416 0 .694-.417.694-1.042v-2.083z" /></svg>