<svg width="25" height="25" viewBox="0 0 25 25" fill="none" xmlns="http://www.w3.org/2000/svg">
<path d="M25 3.12516C25 2.50016 24.5833 2.0835 23.9583 2.0835H1.04167C0.416667 2.0835 0 2.50016 0 3.12516V5.20849C0 5.83349 0.416667 6.25016 1.04167 6.25016H23.9583C24.5833 6.25016 25 5.83349 25 5.20849V3.12516Z" fill="#00B200"/>
<path d="M25 11.4587C25 10.8337 24.5833 10.417 23.9583 10.417H1.04167C0.416667 10.417 0 10.8337 0 11.4587V13.542C0 14.167 0.416667 14.5837 1.04167 14.5837H23.9583C24.5833 14.5837 25 14.167 25 13.542V11.4587Z" fill="#00B200"/>
<path d="M25.0002 19.7917C25.0002 19.1667 24.7224 18.75 24.3057 18.75H9.02794C8.61127 18.75 8.3335 19.1667 8.3335 19.7917V21.875C8.3335 22.5 8.61127 22.9167 9.02794 22.9167H24.3057C24.7224 22.9167 25.0002 22.5 25.0002 21.875V19.7917Z" fill="#00B200"/>
</svg>
